# xmcd
#
# Track frame offsets: 
#        150
#        22103
#        53506
#        72276
#        88551
#        111869
#        131687
#        159400
#        182799
#        208994
#
# Disc length: 3256 seconds
#
# Revision: 0
# Processed by: cddbd v1.5.2PL0 Copyright (c) Steve Scherf et al.
# Submitted via: ExactAudioCopy v0.99pb5
#
DISCID=8a0cb60a
DTITLE=Dyaoulé Pemba - Moonlight chante Haïti
DYEAR=2007
DGENRE=Ethnic
TTITLE0=Fini les colonies
TTITLE1=Nago
TTITLE2=Ayitik
TTITLE3=Le Capitaine America
TTITLE4=Twavay
TTITLE5=Yanvalou
TTITLE6=Marasa
TTITLE7=Legba
TTITLE8=Déy
TTITLE9=Vyewo
EXTD=
EXTT0=
EXTT1=
EXTT2=
EXTT3=
EXTT4=
EXTT5=
EXTT6=
EXTT7=
EXTT8=
EXTT9=
PLAYORDER=
